<?xml version="1.0" standalone="no"?>
<!DOCTYPE svg PUBLIC "-//W3C//DTD SVG 20010904//EN"
 "http://www.w3.org/TR/2001/REC-SVG-20010904/DTD/svg10.dtd">
<svg version="1.0" xmlns="http://www.w3.org/2000/svg"
 width="949.000000pt" height="1280.000000pt" viewBox="0 0 949.000000 1280.000000"
 preserveAspectRatio="xMidYMid meet">

<g transform="translate(0.000000,1280.000000) scale(0.100000,-0.100000)"
fill="#000000" stroke="none">
<path d="M4061 10389 c-30 -28 -39 -31 -83 -27 -26 3 -57 13 -67 22 -13 12
-27 16 -43 11 -18 -5 -20 -4 -8 5 12 9 7 10 -20 4 -19 -3 -36 -10 -38 -15 -5
-13 -32 -11 -32 2 0 8 -4 8 -14 0 -10 -9 -16 -8 -26 4 -7 8 -25 15 -41 15 -28
0 -29 -2 -29 -43 0 -29 -7 -52 -19 -66 -19 -21 -22 -22 -48 -8 -50 26 -110 40
-147 33 -33 -6 -36 -10 -36 -39 0 -18 -7 -43 -16 -55 -12 -17 -12 -22 -2 -22
14 -1 -38 -50 -53 -50 -16 0 -10 17 14 34 12 9 15 14 7 10 -31 -16 -80 -60
-80 -73 0 -20 -50 -4 -82 27 -35 32 -37 22 -3 -14 31 -33 31 -38 3 -52 l-23
-11 22 0 c35 -1 36 -18 1 -30 -39 -14 -47 -14 -28 0 12 8 11 9 -5 7 -14 -2
-19 -10 -17 -25 4 -32 -32 -53 -71 -42 -44 13 -124 11 -133 -2 -4 -8 -27 -10
-65 -6 -51 4 -60 2 -80 -19 -12 -13 -28 -24 -35 -24 -15 0 -29 -18 -38 -47 -9
-28 14 -31 39 -6 13 13 19 13 25 3 6 -9 10 -8 19 6 6 11 11 13 11 7 0 -9 13
-11 45 -6 37 5 45 3 45 -10 0 -12 7 -15 35 -10 26 4 36 2 41 -11 3 -9 12 -16
18 -16 7 0 11 -12 10 -30 -1 -23 -25 -51 -105 -131 -57 -56 -119 -113 -136
-126 -35 -27 -44 -50 -15 -38 9 4 24 8 32 9 9 1 21 6 28 10 9 5 8 -4 -4 -31
-9 -21 -22 -57 -28 -81 -7 -24 -28 -58 -49 -80 -41 -42 -53 -80 -14 -45 39 36
47 36 37 3 -5 -17 -5 -32 1 -35 12 -8 12 -72 -1 -80 -5 -3 -10 -16 -10 -28 0
-12 -7 -35 -15 -51 -8 -15 -15 -37 -15 -47 0 -10 -4 -21 -10 -24 -5 -3 -10
-15 -10 -26 0 -11 -27 -63 -61 -115 -33 -51 -59 -99 -57 -105 4 -12 48 53 48
70 0 13 30 35 37 28 8 -9 -64 -116 -82 -123 -28 -11 -95 -112 -95 -145 0 -17
-18 -69 -40 -115 -40 -82 -67 -111 -131 -143 -14 -7 -39 -24 -55 -37 -27 -23
-27 -24 -4 -13 14 6 32 17 40 24 41 33 69 21 30 -12 -11 -10 -20 -23 -20 -30
0 -8 -12 -31 -26 -52 -15 -23 -24 -49 -22 -63 4 -23 4 -23 18 5 10 20 18 26
33 21 11 -4 23 -1 28 7 7 11 9 10 9 -4 0 -10 -11 -35 -25 -55 -30 -44 -31 -52
-5 -52 27 0 25 -10 -11 -76 -16 -31 -28 -58 -26 -60 2 -2 16 7 32 22 18 16 25
20 21 9 -3 -9 -6 -30 -6 -45 0 -18 -12 -42 -30 -63 -35 -41 -36 -47 -10 -70
17 -15 24 -40 23 -84 -1 -7 4 -13 9 -13 14 0 38 -27 38 -43 0 -21 12 -28 26
-16 10 9 15 7 20 -4 3 -9 3 -20 0 -26 -4 -5 -2 -13 4 -16 6 -4 8 -14 5 -24 -3
-9 -7 -66 -10 -125 -4 -107 -5 -110 -36 -143 -33 -33 -30 -44 6 -19 11 7 37
16 58 20 l38 7 -15 -29 c-12 -24 -47 -60 -171 -179 -6 -6 -31 -17 -54 -24 -34
-10 -40 -15 -29 -23 8 -6 17 -18 20 -27 5 -13 24 -18 80 -21 40 -2 75 -1 76 4
2 4 13 8 23 8 11 0 18 -4 15 -8 -3 -5 38 -8 90 -8 96 1 121 -7 59 -18 -53 -10
-49 -21 9 -21 33 0 62 7 79 18 22 14 27 15 27 3 0 -8 5 -16 12 -18 16 -6 -27
-48 -48 -48 -14 0 -14 3 -4 15 7 8 8 15 2 15 -16 0 -33 -26 -27 -42 3 -8 0
-20 -7 -26 -27 -22 -184 -82 -215 -82 -18 0 -33 -4 -33 -10 0 -5 8 -10 17 -10
40 0 152 25 193 42 25 11 65 22 89 23 l43 4 -22 -24 c-13 -14 -45 -32 -71 -40
-42 -14 -48 -19 -39 -35 5 -10 15 -20 20 -22 6 -2 -7 -17 -28 -33 -22 -16 -38
-34 -36 -40 2 -5 -20 -21 -49 -35 -40 -19 -68 -25 -124 -25 -40 0 -73 -1 -73
-2 0 -1 15 -11 34 -22 24 -15 50 -21 94 -21 66 0 95 -7 86 -21 -3 -5 4 -9 15
-9 12 0 21 -4 21 -9 0 -5 3 -16 6 -25 4 -12 0 -16 -16 -16 -19 0 -20 -2 -10
-15 7 -8 17 -15 22 -15 6 0 24 -6 41 -13 82 -35 177 -50 177 -28 0 13 -37 24
-50 16 -6 -4 -27 1 -46 10 -19 9 -39 13 -44 10 -6 -3 -10 -1 -10 4 0 6 8 12
18 12 19 1 23 2 70 14 24 6 32 13 32 30 0 25 45 86 60 82 12 -3 60 89 60 115
0 12 6 29 14 37 11 13 12 38 4 136 -11 132 -3 448 12 535 6 30 17 111 25 180
8 69 17 139 19 155 3 17 7 120 11 230 3 110 10 217 16 238 5 21 12 51 14 67 2
16 8 44 14 62 9 30 24 109 22 116 -1 1 5 15 14 32 8 16 15 38 15 50 0 11 18
58 40 105 22 47 40 89 40 94 0 5 21 40 46 79 41 61 50 69 68 62 12 -4 21 -12
21 -18 0 -6 2 -13 5 -15 7 -7 297 -21 383 -19 41 2 88 10 120 23 60 24 87 28
212 30 92 3 188 -5 206 -17 5 -3 17 0 25 7 11 9 23 9 52 1 20 -6 55 -14 77
-17 67 -10 115 -27 115 -41 0 -13 12 -18 70 -29 19 -4 58 -19 85 -34 70 -39
108 -45 123 -21 10 16 21 19 61 17 28 -2 57 -10 67 -18 9 -7 30 -12 46 -10 37
3 123 -27 160 -57 9 -7 22 -15 30 -16 7 -1 33 -12 58 -25 25 -12 62 -22 83
-23 28 0 37 -5 37 -17 0 -22 19 -41 42 -41 22 0 67 -48 68 -71 0 -9 7 -22 16
-30 9 -7 13 -21 10 -32 -7 -27 19 -87 38 -87 9 0 16 -7 16 -15 0 -8 -7 -15
-15 -15 -23 0 -18 -19 8 -31 37 -17 120 -157 110 -186 -3 -7 0 -13 6 -13 6 0
11 -7 11 -16 0 -12 -6 -15 -22 -10 -13 4 -61 11 -108 17 -47 6 -101 14 -120
19 -77 19 -213 30 -227 19 -8 -7 -32 -9 -61 -5 -27 3 -72 0 -107 -8 -210 -49
-228 -55 -279 -100 -16 -14 -32 -26 -36 -26 -4 0 -10 -17 -14 -37 -4 -29 -1
-44 14 -65 11 -15 20 -32 20 -38 0 -5 5 -10 11 -10 7 0 10 -12 7 -30 -2 -16 0
-31 6 -33 7 -3 5 -15 -6 -35 -10 -16 -18 -39 -18 -49 0 -10 -7 -44 -15 -76
-13 -49 -13 -66 -1 -122 11 -53 22 -74 57 -113 24 -26 51 -53 61 -60 10 -7 18
-19 18 -26 0 -18 58 -69 95 -84 45 -18 285 -17 313 1 7 5 21 5 32 2 11 -4 20
-2 20 4 0 6 7 8 16 4 8 -3 26 0 40 7 30 17 152 0 259 -35 39 -12 95 -25 125
-28 46 -5 59 -11 83 -39 34 -40 89 -136 84 -146 -2 -4 1 -43 8 -87 8 -56 8
-90 1 -114 -8 -26 -7 -36 2 -39 7 -2 9 -8 6 -14 -4 -5 -9 -49 -11 -96 -3 -48
-10 -96 -16 -107 -15 -28 -37 -248 -26 -260 5 -5 9 -18 8 -30 -1 -17 -2 -17
-10 5 -9 26 -8 10 5 -80 5 -34 5 -34 -4 -5 -7 22 -8 6 -7 -60 2 -49 1 -82 -1
-72 -2 9 -7 15 -11 12 -5 -2 -3 -26 4 -52 10 -40 10 -49 -1 -56 -8 -4 -14 -17
-14 -27 0 -13 -5 -18 -15 -14 -8 4 -15 1 -15 -5 0 -6 4 -11 9 -11 6 0 3 -12
-5 -27 -7 -16 -14 -32 -14 -38 0 -5 -10 -26 -22 -45 -22 -34 -46 -91 -52 -119
-1 -8 -8 -17 -14 -19 -6 -2 -8 -10 -5 -18 3 -8 0 -14 -6 -14 -6 0 -16 -11 -21
-25 -5 -14 -14 -25 -20 -25 -5 0 -10 -4 -10 -10 0 -5 -8 -19 -17 -29 -10 -11
-23 -26 -28 -33 -76 -99 -211 -248 -225 -248 -6 0 -10 -4 -10 -10 0 -5 -5 -10
-11 -10 -6 0 -34 -22 -62 -50 -28 -27 -57 -50 -64 -50 -7 0 -13 -9 -13 -20 0
-11 -4 -20 -10 -20 -5 0 -43 -34 -84 -75 -41 -41 -78 -75 -84 -75 -5 0 -22
-11 -38 -25 -16 -14 -35 -25 -42 -25 -6 0 -20 -8 -30 -18 -39 -39 -234 -67
-283 -42 -25 14 -105 14 -254 1 -125 -11 -175 -4 -247 35 -17 9 -39 12 -60 8
-58 -12 -145 -4 -190 16 -47 21 -74 25 -82 11 -14 -22 41 -108 120 -187 46
-47 84 -89 84 -94 0 -6 9 -10 20 -10 10 0 24 -9 30 -19 5 -11 19 -23 30 -26
11 -4 27 -20 35 -36 9 -16 21 -29 27 -29 6 0 26 -11 44 -25 18 -14 37 -25 43
-25 6 0 11 -4 11 -9 0 -13 66 -42 82 -36 7 2 43 6 80 9 44 3 73 10 84 20 8 9
11 16 5 16 -6 0 -11 5 -11 10 0 6 11 10 24 10 29 0 128 40 138 56 4 6 23 15
41 18 19 4 46 20 64 39 41 44 71 65 104 72 15 4 33 13 40 21 6 8 18 14 26 14
7 0 16 6 19 14 3 8 27 16 55 20 40 5 49 10 49 26 0 13 7 20 19 20 10 0 21 7
25 15 4 11 21 15 61 15 30 0 55 4 55 9 0 5 18 12 40 16 22 4 40 11 40 16 0 5
7 9 15 9 8 0 15 7 15 15 0 27 34 85 50 85 8 0 32 11 52 25 37 25 38 25 73 8
29 -14 36 -22 32 -39 -3 -16 0 -21 10 -17 9 4 13 -6 13 -35 0 -23 -5 -42 -12
-44 -7 -3 -2 -7 10 -10 12 -4 22 -2 22 3 0 5 10 9 23 8 l22 0 -22 -9 c-24 -10
-30 -25 -14 -34 9 -6 7 -71 -4 -146 -9 -61 -9 -121 2 -129 4 -3 14 -17 21 -29
11 -20 11 -27 -3 -42 -12 -13 -15 -34 -12 -91 2 -53 -1 -78 -11 -88 -12 -12
-11 -15 2 -23 9 -5 16 -17 16 -28 0 -10 5 -20 12 -22 10 -4 10 -13 0 -45 -7
-22 -12 -61 -12 -87 0 -32 -7 -57 -22 -78 -32 -45 -195 -205 -257 -252 -28
-22 -51 -43 -51 -48 0 -4 -6 -8 -14 -8 -8 0 -16 -4 -18 -9 -4 -11 -159 -116
-201 -137 -61 -29 -77 -39 -77 -46 0 -5 -6 -8 -12 -8 -14 0 -93 -69 -86 -75 2
-2 36 -7 76 -9 l71 -6 28 38 c36 50 135 141 313 288 19 16 125 119 236 229
184 184 308 327 358 415 11 19 39 59 63 89 24 29 43 57 43 62 0 5 6 9 14 9 8
0 17 13 21 30 4 17 10 30 15 30 10 0 41 90 35 101 -3 4 -1 10 5 14 5 3 10 19
10 36 0 16 4 29 9 29 5 0 11 8 13 17 3 15 4 15 20 0 10 -10 19 -13 23 -8 3 6
13 7 23 4 27 -11 132 -121 133 -141 0 -9 2 -25 4 -34 2 -9 -1 -36 -7 -60 -11
-51 -16 -148 -7 -148 3 0 14 9 23 19 15 16 27 18 79 14 69 -6 101 -18 91 -35
-5 -7 2 -9 22 -4 19 4 24 3 15 -3 -23 -15 17 -21 92 -12 62 6 96 0 65 -12 -7
-3 4 -6 25 -6 28 -1 37 -5 37 -18 0 -20 -48 -93 -61 -93 -5 0 -9 -9 -9 -20 0
-18 6 -20 45 -18 27 2 45 8 45 15 0 7 11 20 25 29 14 9 24 22 23 28 -3 13 46
66 60 66 6 0 12 -7 16 -15 3 -8 16 -15 28 -16 13 0 17 -3 11 -6 -7 -2 -13 -9
-13 -15 0 -6 8 -4 18 5 10 10 29 17 41 17 12 0 20 4 16 9 -9 16 77 24 110 11
66 -27 96 -28 169 -11 76 18 104 15 138 -16 15 -14 28 -15 81 -7 34 5 85 6
112 2 28 -4 82 -10 122 -12 40 -3 82 -10 95 -17 29 -15 68 -56 60 -63 -3 -3 6
-6 19 -6 13 0 67 -5 119 -10 92 -9 96 -8 127 16 67 51 244 16 287 -58 10 -15
24 -28 32 -28 8 0 12 -4 9 -10 -3 -5 -1 -10 4 -10 6 0 11 4 11 10 0 5 25 8 58
6 31 -2 69 -4 85 -5 50 -2 31 -28 -25 -35 -29 -4 -64 -8 -78 -10 -23 -4 -23
-3 -5 10 18 13 17 14 -13 8 -25 -5 -36 -2 -47 12 -9 12 -18 15 -22 9 -5 -5
-17 -11 -28 -11 -11 -1 -41 -7 -67 -15 -42 -11 -54 -11 -95 4 -27 9 -59 17
-73 17 -31 0 -85 -32 -99 -58 -19 -35 -60 -41 -218 -32 -81 5 -164 14 -183 20
-55 16 -95 12 -163 -15 -84 -34 -228 -44 -306 -21 -72 21 -118 20 -161 -3 -62
-34 -79 -41 -148 -52 -66 -10 -169 -3 -405 31 -37 6 -84 10 -105 10 -20 0 -53
4 -72 9 -19 5 -83 12 -142 15 l-108 6 -52 -78 c-71 -105 -113 -161 -243 -326
-30 -36 -43 -62 -38 -67 9 -9 572 -25 793 -23 83 1 103 5 155 30 54 26 69 29
150 27 50 -1 110 -6 135 -11 25 -6 81 -18 125 -27 95 -21 167 -12 255 33 53
26 60 27 225 28 222 1 261 7 372 62 99 48 115 51 210 33 52 -10 68 -9 102 5
23 9 41 19 41 23 0 13 59 41 87 41 16 0 46 -9 68 -20 50 -26 100 -25 149 1 34
18 50 20 122 15 87 -6 114 -13 114 -27 0 -4 24 -26 53 -47 68 -50 115 -58 204
-33 62 17 99 18 160 5 34 -7 56 -57 49 -113 -4 -25 -9 -80 -12 -121 -8 -119
-6 -116 -59 -112 -28 3 -64 -3 -91 -13 -57 -22 -93 -15 -162 31 -35 23 -70 37
-102 41 -42 5 -56 1 -106 -26 -79 -45 -149 -55 -260 -36 -48 9 -93 20 -98 24
-6 5 -32 12 -58 15 -60 9 -106 -10 -143 -59 -44 -57 -67 -64 -232 -71 -249
-10 -298 -18 -364 -62 -53 -36 -67 -40 -181 -55 -330 -43 -323 -43 -411 -23
-183 41 -188 41 -326 21 -103 -14 -158 -16 -262 -11 -78 5 -174 3 -233 -3 -56
-6 -159 -15 -231 -21 -71 -5 -173 -14 -225 -20 -81 -8 -222 -21 -625 -56 -55
-5 -85 -15 -140 -45 -157 -85 -296 -138 -442 -169 -189 -40 -256 -49 -450 -61
-346 -20 -581 15 -904 134 -68 25 -126 39 -200 46 -57 6 -126 14 -154 17 -81
10 -318 22 -645 33 -351 11 -396 16 -465 43 -95 38 -190 60 -275 62 -73 3
-200 17 -695 75 -44 6 -111 20 -148 32 -62 19 -75 20 -130 9 -34 -6 -80 -20
-102 -30 -22 -11 -69 -28 -105 -39 -36 -11 -98 -43 -139 -71 -41 -27 -78 -50
-82 -50 -5 0 -9 -126 -9 -280 0 -154 2 -280 4 -280 2 0 27 16 56 35 47 31 88
47 227 84 31 9 47 20 58 41 21 40 53 42 165 10 61 -18 119 -23 520 -50 91 -7
198 -16 238 -21 40 -5 118 -9 174 -9 66 0 126 -7 176 -19 153 -39 179 -42 797
-71 99 -4 198 -13 220 -19 22 -6 96 -13 165 -16 69 -4 141 -8 160 -10 235 -29
962 -40 1165 -17 61 7 193 19 295 27 102 8 219 19 260 25 145 20 336 41 450
50 63 5 230 18 370 30 140 11 323 25 405 30 316 21 653 51 720 65 62 13 77 13
125 0 73 -20 222 -19 301 1 45 12 85 14 143 10 189 -15 245 -11 346 24 81 28
115 34 235 41 153 8 235 31 318 88 81 54 178 78 254 61 80 -19 304 -41 342
-34 20 3 66 24 103 45 115 67 223 85 293 48 22 -11 63 -28 90 -37 l50 -17 0
-55 c0 -30 -2 -80 -4 -110 -2 -30 -3 -88 -2 -127 1 -58 4 -73 16 -73 11 0 15
12 15 44 0 47 35 157 76 238 27 53 54 193 54 279 0 80 11 101 64 128 l46 24 0
1344 0 1345 -32 -7 c-18 -4 -38 -12 -45 -17 -6 -5 -20 -8 -30 -7 -10 2 -32 -5
-50 -14 -36 -19 -53 -22 -53 -7 0 6 7 10 15 10 12 0 13 4 6 19 -14 26 10 45
45 37 15 -4 32 -2 40 5 8 6 23 9 33 6 11 -3 22 0 24 7 3 8 -24 10 -98 8 -100
-3 -103 -3 -109 20 -12 45 -7 58 19 58 35 0 31 14 -8 28 -28 10 -42 9 -76 -3
-45 -15 -48 -14 -105 40 -11 11 -27 19 -33 17 -8 -2 -13 7 -13 23 0 20 -5 25
-24 25 -14 0 -28 5 -32 11 -4 8 -28 10 -68 6 -34 -3 -68 -2 -76 3 -13 8 -12
10 3 10 20 0 24 44 5 56 -17 11 -90 5 -106 -8 -10 -8 -20 -6 -42 10 -34 26
-40 27 -40 8 0 -7 -10 -16 -22 -19 -13 -2 -31 -8 -40 -12 -13 -5 -18 -3 -18 9
0 12 -10 16 -40 16 -22 0 -40 5 -40 10 0 6 -6 10 -14 10 -7 0 -16 9 -19 20 -3
11 -13 23 -23 27 -10 3 -26 15 -35 24 -17 17 -17 19 -1 28 15 9 15 12 -7 35
-14 14 -29 26 -36 26 -6 0 -18 9 -27 19 -9 10 -36 22 -60 26 -23 4 -53 13 -65
21 -12 8 -31 14 -41 14 -11 0 -25 7 -33 16 -7 8 -21 13 -32 10 -27 -7 -87 34
-87 60 0 26 -48 43 -61 22 -13 -20 -11 -28 7 -28 8 0 12 -4 9 -10 -3 -6 -13
-10 -21 -10 -10 0 -14 13 -14 50 0 38 -4 50 -15 50 -8 0 -15 5 -15 10 0 6 7
10 15 10 8 0 15 6 15 14 0 12 -6 12 -36 3 -26 -8 -37 -8 -42 0 -4 7 -28 13
-52 15 -37 2 -46 7 -48 25 -5 36 -28 47 -50 25 -18 -18 -21 -18 -35 -4 -14 14
-18 13 -42 -2 -21 -14 -29 -15 -41 -5 -14 11 -36 1 -55 -25 -4 -4 -16 -3 -27
3 -11 6 -28 11 -38 11 -17 0 -16 -21 1 -62 4 -11 3 -18 -4 -18 -6 0 -11 7 -11
15 0 9 -7 18 -15 21 -8 3 -17 14 -20 25 -4 12 -16 19 -32 19 -14 0 -39 12 -56
26 -23 20 -32 22 -39 12 -5 -8 -6 2 -2 25 6 35 -6 51 -21 27 -3 -5 -17 -10
-31 -10 -21 0 -24 -3 -18 -25 5 -20 3 -24 -9 -19 -9 3 -23 17 -32 31 -15 23
-21 24 -67 18 -29 -4 -53 -3 -57 2 -3 5 -17 6 -31 2 l-25 -7 28 -1 c49 -2 28
-18 -31 -24 -60 -6 -102 -1 -102 14 0 4 -35 9 -77 11 -69 3 -78 5 -81 23 -2
11 -14 28 -28 38 -20 15 -28 16 -39 7 -13 -10 -15 -7 -15 19 0 32 -11 40 -28
19 -12 -17 -21 -127 -10 -134 4 -3 8 -10 8 -15 0 -12 -42 -1 -51 14 -5 6 -16
6 -35 0 -34 -12 -129 -2 -146 15 -7 7 -22 12 -35 12 -13 0 -23 5 -23 10 0 6
-9 10 -20 10 -13 0 -20 7 -20 20 0 11 -11 30 -25 42 -28 24 -32 43 -10 51 25
10 55 83 55 137 0 43 3 50 18 48 19 -3 31 40 14 51 -5 3 -12 16 -16 29 -6 18
-4 22 14 22 14 0 24 9 31 30 15 42 57 41 128 -4 21 -14 80 -16 87 -4 4 6 0 15
-9 19 -8 5 -13 17 -10 27 3 14 -5 23 -31 36 -42 20 -47 36 -12 36 16 0 27 7
31 21 5 16 13 20 31 16 13 -2 21 0 18 5 -3 5 15 18 40 29 25 11 46 26 46 34 0
8 11 31 25 51 30 44 32 64 5 64 -11 0 -20 -4 -20 -9 0 -5 -7 -12 -16 -15 -8
-3 -13 -2 -10 3 3 4 -1 59 -9 122 -9 63 -18 144 -21 181 -6 60 -9 67 -31 73
-20 5 -24 10 -19 28 4 12 8 43 10 69 4 53 11 68 32 68 11 0 14 9 10 40 -2 22
0 40 5 40 5 0 9 19 9 43 0 40 15 97 33 125 5 7 3 12 -4 12 -25 0 0 11 67 30
64 19 69 19 87 2 18 -16 20 -16 33 3 18 24 19 49 2 39 -7 -4 -2 5 12 21 l25
28 -27 -7 c-21 -5 -28 -3 -28 8 0 10 6 13 16 9 13 -5 15 -2 10 13 -3 10 -1 25
3 33 10 16 -22 91 -39 91 -5 0 -12 9 -15 20 -4 11 -19 27 -35 35 -34 17 -31
50 3 41 11 -3 16 -1 11 4 -5 4 -20 10 -33 12 -14 1 -26 8 -28 15 -6 17 59 -2
73 -22 6 -8 21 -15 34 -15 12 0 44 -11 72 -25 57 -29 58 -29 58 -12 -1 6 -36
35 -78 62 -52 34 -87 66 -108 98 -17 27 -47 66 -67 89 -33 38 -35 42 -22 72
11 25 18 30 39 28 26 -3 38 20 16 33 -5 3 -6 13 -3 23 6 15 5 15 -11 3 -13
-11 -19 -12 -29 -2 -9 10 -6 18 17 36 28 22 31 23 60 8 17 -8 41 -25 53 -36
13 -11 26 -17 30 -13 16 16 7 42 -26 72 -27 25 -32 36 -26 55 7 21 6 22 -9 10
-9 -8 -20 -11 -24 -7 -4 4 6 18 22 31 27 21 27 23 10 34 -11 6 -13 11 -6 11
17 0 15 30 -2 30 -9 0 -14 9 -13 20 1 11 5 20 9 20 12 0 10 48 -2 55 -5 3 -10
19 -10 36 0 24 -4 29 -26 29 -19 0 -28 7 -35 30 -6 17 -15 30 -19 30 -5 0 -11
14 -15 30 -4 19 -13 30 -23 30 -41 1 -99 31 -132 69 -20 23 -39 41 -43 41 -4
0 -7 -13 -7 -30 0 -29 -2 -30 -45 -30 -40 0 -47 3 -56 28 -7 15 -13 22 -16 15
-3 -7 -11 -13 -19 -13 -9 0 -13 -4 -10 -9 8 -12 -20 -22 -41 -14 -15 6 -15 7
3 14 18 7 17 8 -5 15 -23 7 -24 8 -5 15 10 4 51 8 89 9 67 2 68 2 30 11 -22 5
-48 20 -58 32 -13 15 -20 18 -24 10 -2 -7 -11 -13 -19 -13 -9 0 -13 -4 -10 -9
6 -10 -16 -21 -41 -21 -12 0 -13 3 -4 14 6 8 10 20 9 27 -2 9 7 14 25 14 18
-1 26 3 23 12 -4 9 4 13 22 14 17 1 20 3 10 6 -10 2 -18 14 -18 25 0 13 -5 18
-14 15 -10 -4 -12 0 -8 15 5 22 -5 20 -38 -8 -30 -24 -97 -35 -256 -40 -177
-6 -231 2 -271 42 -13 13 -31 24 -39 24 -8 0 -19 10 -25 23 -10 21 -81 77 -98
77 -5 0 -11 7 -15 15 -3 8 -13 15 -22 15 -9 0 -36 18 -61 40 -50 44 -87 65
-133 75 -16 4 -36 16 -44 27 -9 13 -37 26 -77 35 -34 8 -81 25 -104 39 -23 13
-51 24 -62 24 -11 0 -54 13 -94 29 -41 16 -81 30 -89 30 -56 5 -69 7 -76 14
-5 4 -1 5 9 1 9 -3 17 -1 17 4 0 7 -47 10 -142 7 -100 -2 -155 1 -183 10 -36
12 -107 16 -259 15 -57 0 -64 4 -46 25 11 13 8 17 -19 26 -17 6 -31 15 -31 21
0 9 -54 68 -62 68 -2 0 -18 -14 -37 -31z m109 -84 c7 -9 8 -15 2 -15 -5 0 -12
7 -16 15 -3 8 -4 15 -2 15 2 0 9 -7 16 -15z m-840 -165 c0 -5 -4 -10 -10 -10
-5 0 -10 5 -10 10 0 6 5 10 10 10 6 0 10 -4 10 -10z m45 -30 c-10 -11 -20 -18
-23 -15 -7 6 18 35 31 35 5 0 2 -9 -8 -20z m62 -22 c-3 -8 -6 -5 -6 6 -1 11 2
17 5 13 3 -3 4 -12 1 -19z m-390 -114 c-3 -3 -12 -4 -19 -1 -8 3 -5 6 6 6 11
1 17 -2 13 -5z m-207 -8 c0 -3 -4 -8 -10 -11 -5 -3 -10 -1 -10 4 0 6 5 11 10
11 6 0 10 -2 10 -4z m3179 -286 c-23 -18 -44 -24 -122 -36 l-39 -6 17 26 c18
28 30 32 40 16 3 -5 0 -10 -7 -11 -11 0 -11 -2 0 -6 7 -3 22 3 33 13 10 9 19
13 19 8 0 -5 9 -10 20 -10 25 0 27 16 3 17 -17 1 -17 2 0 6 9 2 17 9 17 14 0
6 9 5 22 -2 l21 -11 -24 -18z m161 -10 c0 -18 -98 -77 -163 -98 -81 -27 -77
-26 -77 -3 0 24 52 56 104 64 22 4 44 15 52 26 19 26 84 35 84 11z m-230 -50
c0 -5 -6 -10 -14 -10 -8 0 -16 -5 -18 -12 -3 -7 -10 -8 -17 -3 -10 6 -6 11 15
21 16 7 30 13 32 13 1 1 2 -3 2 -9z m-90 -94 c0 -3 -4 -8 -10 -11 -5 -3 -10
-1 -10 4 0 6 5 11 10 11 6 0 10 -2 10 -4z m205 -6 c-3 -5 -16 -10 -28 -9 -20
1 -20 2 3 9 14 4 26 8 28 9 2 1 0 -3 -3 -9z m155 -10 c0 -5 -4 -10 -10 -10 -5
0 -10 5 -10 10 0 6 5 10 10 10 6 0 10 -4 10 -10z m-3389 -33 l-23 -22 17 28
c10 15 20 25 23 22 3 -3 -5 -16 -17 -28z m-21 -201 c0 -8 -4 -18 -10 -21 -5
-3 -10 3 -10 14 0 12 5 21 10 21 6 0 10 -6 10 -14z m3557 -62 c-3 -3 -12 -4
-19 -1 -8 3 -5 6 6 6 11 1 17 -2 13 -5z m348 -228 c0 -22 -14 -29 -34 -17 -19
12 -6 43 16 39 10 -2 18 -12 18 -22z m-70 -16 c3 -5 -1 -10 -10 -10 -9 0 -13
5 -10 10 3 6 8 10 10 10 2 0 7 -4 10 -10z m-3925 -31 c-7 -11 -14 -18 -17 -15
-3 3 0 12 7 21 18 21 23 19 10 -6z m3970 -9 c0 -13 -11 -13 -30 0 -12 8 -11
10 8 10 12 0 22 -4 22 -10z m-80 -25 c7 -8 18 -15 25 -15 17 0 125 -98 125
-113 0 -6 8 -19 18 -30 17 -20 16 -20 -13 -13 -16 4 -37 14 -46 22 -8 8 -23
14 -32 14 -9 0 -17 4 -17 10 0 5 7 7 15 4 23 -9 18 14 -6 26 -34 19 -99 81
-99 96 0 18 14 18 30 -1z m-175 -325 c3 -5 2 -10 -4 -10 -5 0 -13 5 -16 10 -3
6 -2 10 4 10 5 0 13 -4 16 -10z m153 -108 c18 -16 32 -39 32 -51 0 -22 0 -22
-24 -4 -14 10 -27 28 -31 41 -3 12 -10 22 -15 22 -6 0 -10 5 -10 10 0 17 15
11 48 -18z m175 -26 c4 -10 1 -13 -9 -9 -15 6 -19 23 -5 23 5 0 11 -7 14 -14z
m-79 -88 c-8 -13 34 -18 61 -8 15 6 30 8 34 5 7 -7 -19 -24 -39 -26 -61 -5
-75 -3 -75 9 0 8 -8 19 -17 26 -18 13 -26 32 -10 22 4 -2 14 -1 22 4 11 7 17
4 21 -8 4 -9 5 -20 3 -24z m-74 6 c0 -8 -4 -14 -9 -14 -11 0 -22 26 -14 34 9
9 23 -3 23 -20z m115 -4 c3 -5 2 -10 -4 -10 -5 0 -13 5 -16 10 -3 6 -2 10 4
10 5 0 13 -4 16 -10z m-155 -341 c0 -11 -4 -17 -10 -14 -5 3 -10 13 -10 21 0
8 5 14 10 14 6 0 10 -9 10 -21z m-4153 -211 c-3 -8 -6 -5 -6 6 -1 11 2 17 5
13 3 -3 4 -12 1 -19z m2946 -24 c18 -9 42 -28 55 -41 26 -28 30 -73 7 -73 -9
0 -30 -7 -48 -17 -32 -16 -72 -19 -138 -8 -30 5 -36 10 -36 31 0 13 3 27 8 30
5 3 9 12 9 21 0 23 60 72 88 73 13 0 37 -7 55 -16z m1211 -11 c4 -16 9 -37 12
-48 2 -11 -4 -4 -15 15 -22 38 -26 60 -12 60 5 0 12 -12 15 -27z m-1377 -99
c-3 -3 -12 -4 -19 -1 -8 3 -5 6 6 6 11 1 17 -2 13 -5z m108 -83 c-13 -11 -85
-22 -85 -12 0 15 14 21 54 21 23 0 36 -4 31 -9z m1319 -47 c9 -3 16 -10 16
-16 0 -5 -6 -6 -12 -2 -8 5 -7 0 2 -11 14 -17 13 -18 -2 -12 -11 4 -15 2 -12
-7 3 -7 -2 -19 -11 -26 -16 -13 -19 -6 -18 45 1 38 5 41 37 29z m-1354 -144
c-9 -18 -40 -40 -55 -40 -5 0 57 59 63 60 1 0 -2 -9 -8 -20z m-2678 -318 c-7
-2 -9 -9 -5 -14 4 -7 -1 -9 -15 -6 -12 4 -26 0 -33 -8 -13 -16 -39 -19 -39 -5
0 6 -17 11 -37 13 -32 3 -26 5 42 19 44 9 84 14 90 11 5 -3 4 -7 -3 -10z m48
-32 c-20 -13 -33 -13 -25 0 3 6 14 10 23 10 15 0 15 -2 2 -10z m5 -29 c-3 -6
-14 -11 -23 -11 -15 1 -15 2 2 15 21 16 32 13 21 -4z m-15 -225 c0 -2 -9 -6
-20 -9 -11 -3 -18 -1 -14 4 5 9 34 13 34 5z m-42 -278 c-2 -6 -10 -14 -16 -16
-7 -2 -10 2 -6 12 7 18 28 22 22 4z m5317 2 c3 -5 -3 -10 -14 -10 -12 0 -21 5
-21 10 0 6 6 10 14 10 8 0 18 -4 21 -10z m-425 -190 c0 -5 -9 -10 -20 -10 -11
0 -20 5 -20 10 0 6 9 10 20 10 11 0 20 -4 20 -10z m-1690 -254 c0 -3 -4 -8
-10 -11 -5 -3 -10 -1 -10 4 0 6 5 11 10 11 6 0 10 -2 10 -4z m1577 -158 c-3
-8 -6 -5 -6 6 -1 11 2 17 5 13 3 -3 4 -12 1 -19z m1833 -8 c0 -5 -6 -10 -14
-10 -8 0 -18 5 -21 10 -3 6 3 10 14 10 12 0 21 -4 21 -10z m200 -160 c-20 -13
-40 -13 -40 0 0 6 12 10 28 10 21 0 24 -2 12 -10z m-255 -60 c3 -5 -1 -10 -9
-10 -9 0 -16 5 -16 10 0 6 4 10 9 10 6 0 13 -4 16 -10z m182 -2 c37 -14 43
-37 13 -56 -26 -16 -25 -30 3 -34 l22 -3 -22 -13 c-17 -9 -28 -10 -43 -2 -16
9 -20 21 -20 65 0 30 3 55 7 55 4 0 22 -5 40 -12z m-393 -34 c4 -9 4 -26 0
-37 -5 -16 -8 -17 -15 -6 -11 18 -11 59 0 59 5 0 12 -7 15 -16z m86 -19 c0 -8
-4 -15 -9 -15 -13 0 -22 16 -14 24 11 11 23 6 23 -9z m-10 -55 c0 -5 -4 -10
-10 -10 -5 0 -10 5 -10 10 0 6 5 10 10 10 6 0 10 -4 10 -10z m237 -2 c18 -7
33 -15 33 -18 0 -6 -59 -30 -73 -30 -4 0 -7 14 -7 30 0 34 1 34 47 18z m-486
-59 c15 -28 39 -24 39 7 0 22 2 24 14 14 8 -6 16 -23 18 -37 3 -25 52 -72 63
-61 9 8 9 40 0 61 -6 14 -2 17 20 17 20 0 26 -4 23 -17 -6 -24 27 -89 48 -97
23 -9 54 2 54 19 0 13 46 27 85 25 11 0 32 -1 48 -2 17 0 27 -6 27 -16 0 -9
-6 -12 -17 -9 -68 21 -63 24 -63 -36 0 -53 -1 -56 -30 -62 -16 -4 -45 -8 -63
-10 -33 -3 -99 -28 -125 -48 -17 -14 4 -37 33 -37 48 0 74 -23 38 -33 -10 -3
1 -3 24 0 38 5 42 3 45 -18 2 -20 9 -24 41 -24 29 0 37 -4 37 -17 0 -13 8 -18
25 -18 14 0 25 -4 25 -8 0 -15 -33 -39 -62 -46 -32 -7 -38 -26 -8 -26 13 0 20
-7 20 -17 -1 -21 -33 -63 -49 -63 -6 0 -11 -18 -11 -40 0 -22 -4 -40 -10 -40
-5 0 -10 18 -10 40 0 28 -4 40 -15 40 -15 0 -65 45 -65 59 0 5 -7 11 -15 15
-10 3 -14 16 -13 38 3 38 -20 49 -47 22 -10 -10 -33 -18 -57 -18 -39 -1 -42 2
-65 44 -34 63 -43 70 -43 32 0 -18 -4 -32 -10 -32 -5 0 -10 -7 -10 -15 0 -8
-4 -15 -10 -15 -5 0 -10 7 -10 15 0 8 -9 15 -20 15 -11 0 -20 -7 -20 -15 0 -8
-9 -15 -20 -15 -11 0 -20 7 -20 15 0 8 -9 15 -20 15 -11 0 -20 -7 -20 -15 0
-9 9 -15 21 -15 19 0 20 -4 14 -57 -4 -32 -13 -63 -21 -69 -8 -6 -14 -16 -14
-22 0 -6 -18 -16 -39 -22 -22 -6 -41 -16 -43 -22 -2 -6 -10 -8 -16 -4 -9 5 -9
13 -2 27 9 15 7 21 -5 25 -8 3 -22 3 -30 0 -12 -4 -14 -10 -5 -25 8 -16 6 -22
-7 -30 -14 -8 -15 -11 -3 -11 9 -1 6 -5 -7 -10 -26 -10 -29 -31 -11 -60 10
-15 10 -26 0 -52 -8 -21 -9 -34 -2 -36 5 -2 10 -9 10 -15 0 -8 -4 -7 -12 1 -7
7 -20 12 -29 12 -23 0 -43 53 -36 96 5 30 3 37 -13 41 -13 4 -20 14 -21 32 0
14 -4 35 -8 45 -12 31 5 126 27 147 30 27 92 16 92 -17 0 -16 6 -24 18 -24 13
0 11 -5 -10 -24 -33 -28 -35 -36 -9 -36 11 0 23 -4 26 -10 3 -5 18 -10 33 -10
23 1 25 2 10 11 -22 12 -24 48 -3 55 21 8 19 34 -2 34 -17 1 -17 1 0 14 9 7
17 21 17 30 0 9 7 16 15 16 11 0 15 11 15 40 0 33 -3 40 -20 40 -11 0 -20 5
-20 10 0 6 20 10 43 10 37 0 46 4 55 26 10 21 9 28 -3 41 -13 13 -20 13 -48 2
-18 -7 -36 -18 -40 -23 -5 -7 -6 -3 -3 7 3 10 6 29 6 41 0 16 9 25 33 34 18 7
41 12 50 12 13 0 16 6 11 24 -4 17 1 29 18 43 27 22 48 56 48 79 0 12 7 14 33
9 17 -4 29 -4 25 0 -13 13 11 33 33 28 11 -3 24 -14 30 -24z m580 21 c25 -14
25 -47 -1 -54 -11 -3 -29 -9 -40 -12 -17 -4 -20 -1 -20 25 0 18 7 34 18 40 21
13 20 13 43 1z m-273 -32 c-6 -18 -28 -21 -28 -4 0 9 7 16 16 16 9 0 14 -5 12
-12z m212 -58 c0 -5 -12 -10 -27 -10 -22 0 -25 2 -13 10 20 13 40 13 40 0z
m-80 -80 c0 -5 -12 -10 -27 -10 -22 0 -25 2 -13 10 20 13 40 13 40 0z m-109
-90 c12 0 16 -5 13 -15 -9 -22 -37 -18 -53 6 -11 19 -11 21 4 15 9 -3 25 -6
36 -6z m-624 -108 c2 -14 -3 -25 -12 -29 -22 -8 -28 2 -21 32 8 31 28 29 33
-3z m180 -124 c-3 -8 -6 -5 -6 6 -1 11 2 17 5 13 3 -3 4 -12 1 -19z m144 -38
c10 -6 19 -21 19 -33 0 -18 -2 -19 -11 -7 -8 11 -12 12 -16 3 -10 -25 -63 -4
-63 25 0 21 41 27 71 12z m473 1 c9 -14 -22 -34 -40 -27 -13 5 -14 9 -4 21 14
17 36 20 44 6z m-377 -23 c-3 -8 -6 -5 -6 6 -1 11 2 17 5 13 3 -3 4 -12 1 -19z
m73 -18 c0 -5 -7 -10 -16 -10 -8 0 -12 5 -9 10 3 6 10 10 16 10 5 0 9 -4 9
-10z m-340 -14 c0 -3 -4 -8 -10 -11 -5 -3 -10 -1 -10 4 0 6 5 11 10 11 6 0 10
-2 10 -4z m305 -7 c4 -6 13 -8 21 -5 10 4 14 -2 14 -19 0 -17 -4 -23 -14 -19
-9 4 -20 -6 -31 -25 -19 -37 -35 -40 -35 -6 0 14 5 25 11 25 7 0 10 12 7 30
-5 30 13 42 27 19z m-155 -163 c0 -8 -4 -18 -10 -21 -5 -3 -10 3 -10 14 0 12
5 21 10 21 6 0 10 -6 10 -14z m35 -825 c43 -5 84 -16 92 -24 13 -13 6 -14 -59
-10 -83 5 -128 19 -128 40 0 8 4 12 8 9 5 -3 44 -9 87 -15z"/>
<path d="M8620 5275 c0 -10 24 -55 29 -55 3 0 13 5 21 10 12 8 11 10 -7 10
-16 0 -23 6 -23 20 0 11 -4 20 -10 20 -5 0 -10 -2 -10 -5z"/>
<path d="M9042 5020 c0 -14 2 -19 5 -12 2 6 2 18 0 25 -3 6 -5 1 -5 -13z"/>
<path d="M2953 9815 c-7 -8 -9 -16 -4 -19 5 -3 12 1 15 10 8 22 4 25 -11 9z"/>
<path d="M2676 9261 c-4 -5 3 -7 14 -4 23 6 26 13 6 13 -8 0 -17 -4 -20 -9z"/>
<path d="M6860 9210 c0 -5 5 -10 10 -10 6 0 10 5 10 10 0 6 -4 10 -10 10 -5 0
-10 -4 -10 -10z"/>
<path d="M2396 8573 c-6 -14 -5 -15 5 -6 7 7 10 15 7 18 -3 3 -9 -2 -12 -12z"/>
<path d="M3528 8175 c-3 -4 -48 -9 -100 -11 -91 -5 -96 -7 -228 -72 l-135 -67
-33 -67 c-34 -70 -35 -93 -1 -83 22 7 89 -20 89 -35 0 -6 25 -10 55 -10 40 0
57 4 61 15 4 8 18 15 33 15 15 0 51 7 79 15 44 13 56 14 84 2 18 -8 55 -17 81
-21 26 -4 45 -12 42 -17 -4 -5 1 -12 10 -15 21 -8 12 -50 -17 -81 -18 -19 -40
-27 -123 -40 -79 -13 -197 -60 -282 -114 -36 -22 -57 -131 -31 -157 7 -7 34
-12 61 -12 73 0 157 -43 157 -81 0 -26 32 -32 129 -25 57 5 81 4 72 -3 -12 -8
-9 -11 12 -16 15 -4 36 -5 48 -2 11 3 33 2 49 -3 19 -5 50 -3 87 5 32 8 69 14
82 15 13 0 34 11 47 25 13 14 27 25 32 25 5 0 12 9 15 20 3 13 10 18 21 14 10
-4 16 -1 16 7 0 8 19 34 42 59 58 61 70 99 67 195 -4 133 -4 135 27 161 16 13
34 23 40 24 6 0 19 18 30 40 10 22 22 40 27 40 4 0 7 18 7 40 0 22 -4 40 -10
40 -5 0 -10 9 -10 20 0 15 -7 20 -29 20 -16 0 -31 6 -35 15 -3 9 -18 15 -38
15 -18 0 -68 18 -113 40 -58 29 -101 43 -155 49 -110 14 -255 23 -262 16z"/>
<path d="M2250 8130 c0 -5 5 -10 11 -10 5 0 7 5 4 10 -3 6 -8 10 -11 10 -2 0
-4 -4 -4 -10z"/>
<path d="M6636 7997 c3 -10 9 -15 12 -12 3 3 0 11 -7 18 -10 9 -11 8 -5 -6z"/>
<path d="M2555 6980 c-3 -6 1 -7 9 -4 18 7 21 14 7 14 -6 0 -13 -4 -16 -10z"/>
<path d="M6507 6776 c-8 -19 11 -35 34 -29 23 6 25 29 3 37 -24 9 -31 7 -37
-8z"/>
<path d="M2856 6734 c-9 -23 -7 -46 3 -40 5 3 9 17 9 31 0 29 -3 31 -12 9z"/>
<path d="M4170 6714 c0 -5 -37 -10 -83 -12 -45 -1 -83 -7 -85 -12 -2 -6 -12
-10 -22 -10 -10 0 -30 -14 -45 -32 -33 -38 -29 -75 13 -127 44 -54 112 -64
112 -16 0 34 42 58 75 43 14 -6 25 -19 25 -28 0 -30 26 -43 68 -35 20 4 45 7
55 6 10 0 22 10 27 22 7 18 9 19 9 4 1 -10 6 -15 12 -11 6 3 8 15 6 26 -3 10
-1 33 4 50 6 23 4 38 -7 57 -17 27 -104 76 -104 58 0 -6 -7 -2 -15 9 -10 13
-14 14 -15 5 0 -11 -3 -11 -15 -1 -8 7 -15 9 -15 4z"/>
<path d="M4495 6679 c-50 -6 -95 -26 -95 -41 0 -4 12 -10 28 -13 15 -3 45 -14
67 -24 50 -23 106 -41 128 -41 18 0 23 -25 7 -35 -5 -3 -10 -15 -10 -26 0 -10
-5 -19 -11 -19 -5 0 -7 -4 -4 -10 9 -15 77 -11 99 5 36 28 0 162 -51 188 -37
19 -96 25 -158 16z"/>
<path d="M2820 6574 c-19 -22 -30 -44 -27 -55 3 -10 0 -20 -6 -22 -8 -2 -6
-10 5 -21 16 -15 20 -15 53 -2 33 14 35 17 35 64 0 71 -19 82 -60 36z"/>
<path d="M2720 6403 c-19 -3 -38 -10 -42 -16 -10 -16 -133 -16 -149 1 -19 18
-28 15 -22 -9 3 -11 16 -26 29 -31 13 -6 24 -15 24 -20 0 -5 -9 -4 -20 2 -11
6 -30 8 -44 4 -13 -3 -27 -1 -30 5 -12 19 -26 12 -26 -11 1 -42 38 -70 135
-103 28 -9 59 -20 70 -25 11 -5 29 -11 40 -13 12 -3 6 -6 -15 -7 l-35 -2 30
-8 30 -7 -47 -21 c-27 -12 -48 -24 -48 -28 0 -4 23 -4 50 -1 47 6 50 5 40 -13
-15 -29 -12 -40 15 -50 15 -6 25 -17 25 -29 0 -20 25 -36 64 -40 10 -1 15 -27
19 -98 9 -159 53 -253 145 -307 59 -35 94 -87 96 -143 0 -24 4 -43 8 -43 4 0
9 -12 11 -27 2 -18 5 -11 6 19 1 40 3 46 20 41 12 -3 23 -17 26 -33 8 -35 35
-47 52 -24 10 14 9 22 -6 43 -34 49 -119 236 -156 341 -38 110 -89 339 -100
450 -9 97 -14 113 -31 106 -17 -6 -90 56 -99 85 -4 10 -12 18 -18 17 -7 0 -28
-3 -47 -5z m5 -312 c-3 -6 -11 -11 -17 -11 -6 0 -6 6 2 15 14 17 26 13 15 -4z
m70 -82 c12 -19 -5 -23 -22 -6 -16 16 -16 17 -1 17 9 0 20 -5 23 -11z"/>
<path d="M4060 6059 c-14 -4 -59 -18 -100 -30 -41 -12 -111 -37 -155 -55 -44
-19 -92 -34 -108 -34 -15 0 -41 -7 -57 -15 -29 -15 -33 -35 -18 -75 4 -8 8
-22 11 -30 3 -11 19 -16 58 -17 30 -1 75 -5 100 -8 32 -5 50 -3 60 7 35 33 71
42 167 41 95 0 220 -17 253 -34 9 -4 57 -4 108 1 60 7 99 7 111 0 22 -12 62
-13 117 -4 32 5 52 2 80 -12 21 -10 42 -17 46 -16 4 1 13 -11 18 -28 6 -16 16
-30 22 -31 7 0 26 -2 42 -3 17 -2 44 4 60 12 17 8 57 20 90 26 52 10 60 15 63
36 2 14 8 29 13 34 12 13 12 29 0 21 -5 -3 -12 -1 -16 5 -9 15 -75 46 -113 53
-19 4 -48 13 -65 21 -77 35 -165 69 -226 87 -36 10 -88 26 -115 35 -41 14 -56
15 -102 5 -29 -7 -56 -17 -59 -22 -10 -14 -42 -11 -77 9 -37 21 -167 34 -208
21z"/>
<path d="M3974 5615 c-8 -11 -14 -29 -14 -41 0 -13 -12 -32 -26 -43 -25 -20
-26 -22 -10 -46 18 -27 19 -27 81 -30 22 -1 59 -10 82 -19 91 -35 323 -60 349
-38 5 5 36 6 69 3 61 -6 135 5 135 20 0 5 13 12 30 16 l30 8 -50 52 c-28 29
-50 59 -50 67 0 18 -13 23 -110 38 -44 7 -80 16 -80 20 0 3 -15 2 -32 -3 -22
-6 -61 -5 -113 2 -44 6 -124 12 -179 13 -87 1 -100 -1 -112 -19z"/>
<path d="M3190 5354 c0 -5 7 -19 15 -30 8 -10 15 -14 15 -8 0 5 -7 19 -15 30
-8 10 -15 14 -15 8z"/>
<path d="M2539 4627 c-57 -50 -62 -67 -67 -232 -4 -145 -3 -153 27 -249 38
-120 38 -141 6 -162 -14 -9 -25 -24 -25 -34 0 -18 95 -129 158 -184 l33 -29
-18 39 c-9 21 -22 46 -29 54 -6 8 -26 58 -45 110 -29 82 -34 109 -35 195 -2
132 22 249 60 300 28 36 78 64 211 120 34 14 38 18 22 26 -9 6 -54 11 -99 13
-77 3 -82 4 -107 35 -32 39 -47 39 -92 -2z"/>
<path d="M2160 4420 c-25 -10 -108 -38 -185 -63 -77 -26 -176 -63 -220 -83
-77 -36 -79 -37 -50 -45 17 -4 45 -13 62 -20 27 -11 42 -11 90 0 32 8 74 13
93 11 19 -1 57 -3 84 -4 l50 -1 12 47 c16 64 49 114 97 149 45 33 34 36 -33 9z"/>
<path d="M6383 4363 c9 -2 25 -2 35 0 9 3 1 5 -18 5 -19 0 -27 -2 -17 -5z"/>
<path d="M1445 4185 c-60 -13 -138 -29 -173 -36 -101 -18 -63 -23 75 -9 100
10 141 19 188 41 74 34 52 35 -90 4z"/>
<path d="M6616 4131 c-3 -5 1 -11 9 -15 9 -3 15 0 15 9 0 16 -16 20 -24 6z"/>
<path d="M890 3950 c-142 -12 -268 -47 -349 -98 -31 -19 -142 -104 -191 -146
-93 -80 -258 -271 -245 -284 2 -2 23 12 45 31 59 50 162 102 255 128 67 19
104 22 220 22 77 -1 185 -9 240 -17 55 -9 134 -21 175 -27 41 -6 113 -17 160
-25 47 -8 131 -19 188 -23 91 -7 111 -12 175 -45 88 -46 184 -65 327 -66 58 0
134 -7 170 -15 148 -35 198 -43 245 -40 28 1 51 3 52 4 1 0 -14 18 -32 39 -19
20 -45 53 -59 72 -39 55 -133 251 -141 293 -6 36 -7 37 -46 37 -23 0 -55 6
-72 14 -18 8 -72 19 -120 25 -48 7 -124 25 -168 41 -48 18 -118 34 -172 40
-51 6 -114 15 -142 20 -49 10 -355 31 -405 28 -14 0 -63 -4 -110 -8z"/>
<path d="M9456 2388 c-23 -13 -46 -31 -105 -85 -55 -50 -90 -62 -108 -37 -16
22 -39 5 -48 -37 l-7 -30 -91 7 c-51 3 -97 7 -103 9 -6 2 -40 -1 -75 -6 -177
-24 -248 -38 -289 -57 -37 -16 -76 -21 -225 -26 -157 -6 -305 -23 -370 -42
-11 -4 -36 -22 -56 -41 -21 -20 -53 -38 -77 -44 -60 -13 -251 -29 -477 -39
-110 -5 -254 -13 -320 -19 -66 -6 -235 -15 -375 -21 -140 -6 -287 -15 -326
-20 -71 -9 -231 -21 -514 -40 -80 -5 -239 -17 -355 -25 -115 -9 -250 -18 -300
-20 -49 -3 -103 -7 -120 -10 -16 -2 -140 -11 -275 -19 -135 -9 -267 -18 -295
-21 -210 -22 -550 -33 -965 -29 -395 4 -876 24 -948 40 -40 8 -356 33 -567 44
-110 6 -256 18 -325 26 -69 8 -197 19 -285 24 -88 6 -189 12 -225 15 -36 2
-186 9 -335 15 -148 5 -350 17 -447 26 -98 9 -184 14 -193 11 -8 -4 -15 -15
-15 -25 0 -30 -31 -50 -125 -82 -48 -16 -94 -35 -101 -41 -11 -9 -14 -71 -14
-330 0 -176 2 -319 5 -319 5 0 74 33 125 59 8 5 19 27 23 51 l9 43 426 -7
c455 -7 555 -11 697 -26 50 -5 144 -14 210 -20 66 -6 165 -15 220 -20 55 -5
170 -14 255 -20 374 -25 693 -49 840 -62 295 -25 1206 -25 1665 1 110 6 297
15 415 21 118 6 339 17 490 25 151 8 381 19 510 25 129 6 287 15 350 20 230
17 924 49 1240 56 227 6 342 18 423 45 67 23 270 53 300 45 11 -2 30 2 43 10
12 9 60 22 106 29 46 8 130 23 188 34 107 21 371 41 537 41 l92 0 17 -35 c10
-21 21 -32 28 -28 6 4 41 26 78 50 36 24 70 43 73 43 4 0 34 16 66 36 l59 35
0 405 c0 222 -3 404 -7 404 -5 0 -16 -6 -27 -12z"/>
<path d="M9222 1257 c-18 -23 -32 -134 -42 -332 -6 -110 -13 -205 -14 -211 -6
-17 -431 -36 -727 -33 -271 3 -308 -1 -366 -39 -55 -35 -152 -44 -633 -62
-168 -6 -346 -12 -395 -14 -50 -2 -172 -7 -270 -11 -99 -4 -189 -9 -200 -11
-34 -8 -712 -32 -1050 -39 -176 -3 -347 -8 -380 -10 -33 -2 -157 -6 -275 -10
-118 -3 -298 -10 -400 -15 -323 -16 -1098 -22 -1440 -10 -283 10 -602 26
-1160 60 -80 5 -152 11 -160 14 -13 5 -160 21 -665 71 -366 36 -383 37 -613
25 -124 -6 -254 -8 -290 -4 -49 5 -66 3 -73 -7 -6 -10 -14 -7 -34 16 -14 17
-23 35 -20 42 2 7 0 15 -5 18 -5 3 -9 -135 -10 -345 l0 -350 4604 0 4605 0 -6
34 c-3 19 0 47 7 63 17 39 141 136 217 170 l62 28 1 373 c0 204 -2 372 -5 372
-12 0 -124 -67 -170 -102 -27 -21 -56 -38 -64 -38 -20 0 -6 78 22 115 24 33
28 89 10 126 -6 13 -14 45 -18 71 -6 46 -26 67 -43 45z"/>
</g>
</svg>
